2.2Hz3min_grf.mot
version=1
nRows=20
nColumns 19
inDegrees=yes
endheader
time	1_ground_force_vx	1_ground_force_vy	1_ground_force_vz	1_ground_force_px	1_ground_force_py	1_ground_force_pz	1_ground_torque_x	1_ground_torque_y	1_ground_torque_z	2_ground_force_vx	2_ground_force_vy	2_ground_force_vz	2_ground_force_px	2_ground_force_py	2_ground_force_pz	2_ground_torque_x	2_ground_torque_y	2_ground_torque_z
            1.253500	           -0.278639	            9.016573	           -0.740220	           -0.233013	            0.005581	           -0.255695	            0.534069	           -0.470980	           -0.128183	           -0.106348	            3.498647	           -0.034404	           -0.232311	            0.006130	           -0.833667	           -0.449862	           -0.321608	           -0.396809
            1.254000	           -0.416039	            9.556950	           -0.645848	           -0.233013	            0.005581	           -0.255695	            0.267226	           -0.499224	           -0.039534	           -0.103046	            2.578073	           -0.084618	           -0.232311	            0.006130	           -0.833667	           -0.449733	           -0.368535	           -0.491229
            1.254500	           -0.461037	            9.915900	           -0.277341	           -0.233013	            0.005581	           -0.255695	            0.363992	           -0.563917	           -0.042019	            0.174128	            3.683476	            0.059990	           -0.232311	            0.006130	           -0.833667	           -0.430948	           -0.359284	           -0.415802
            1.255000	           -0.370229	            9.737225	           -0.645189	           -0.233013	            0.005581	           -0.255695	            0.435886	           -0.545065	           -0.113394	            0.084416	            2.578247	            0.056087	           -0.232311	            0.006130	           -0.833667	           -0.431051	           -0.330925	           -0.415701
            1.255500	           -0.186743	            9.737063	           -0.599788	           -0.233013	            0.005581	           -0.255695	            0.396354	           -0.517176	           -0.124155	            0.220895	            3.684314	           -0.127743	           -0.232311	            0.006130	           -0.833667	           -0.449844	           -0.330926	           -0.434543
            1.256000	           -0.186108	            9.375549	           -0.372054	           -0.233013	            0.005581	           -0.255695	            0.424435	           -0.452620	           -0.086339	           -0.151225	            2.946200	           -0.083283	           -0.232311	            0.006130	           -0.833667	           -0.431092	           -0.330589	           -0.509952
            1.256500	           -0.186611	            9.016001	           -0.602880	           -0.233013	            0.005581	           -0.255695	            0.415683	           -0.517334	           -0.086582	            0.034846	            3.315174	           -0.082049	           -0.232311	            0.006130	           -0.833667	           -0.393464	           -0.330924	           -0.378017
            1.257000	           -0.278297	            9.015983	           -0.602652	           -0.233013	            0.005581	           -0.255695	            0.453265	           -0.526693	           -0.071827	           -0.106951	            3.682293	            0.107037	           -0.232311	            0.006130	           -0.833667	           -0.393574	           -0.302499	           -0.396766
            1.257500	           -0.370325	            9.016555	           -0.739992	           -0.233013	            0.005581	           -0.255695	            0.365170	           -0.535839	           -0.113153	           -0.153801	            3.682124	            0.107057	           -0.232311	            0.006130	           -0.833667	           -0.468579	           -0.340581	           -0.396869
            1.258000	           -0.507806	            9.376863	           -0.692249	           -0.233013	            0.005581	           -0.255695	            0.363061	           -0.536062	           -0.081429	            0.223013	            3.130865	            0.151855	           -0.232311	            0.006130	           -0.833667	           -0.543780	           -0.322014	           -0.377919
            1.258500	           -0.369348	            8.654451	           -0.374691	           -0.233013	            0.005581	           -0.255695	            0.349567	           -0.507776	           -0.188173	            0.174107	            3.683643	            0.013061	           -0.232311	            0.006130	           -0.833667	           -0.449750	           -0.359217	           -0.453495
            1.259000	           -0.232634	            9.376720	           -0.647076	           -0.233013	            0.005581	           -0.255695	            0.342218	           -0.507966	           -0.125923	            0.033496	            3.683638	           -0.127663	           -0.232311	            0.006130	           -0.833667	           -0.487466	           -0.321475	           -0.472194
            1.259500	           -0.324059	            9.196043	           -0.555909	           -0.233013	            0.005581	           -0.255695	            0.394917	           -0.508317	           -0.054766	           -0.148587	            2.209775	           -0.132840	           -0.232311	            0.006130	           -0.833667	           -0.468511	           -0.359486	           -0.396936
            1.260000	           -0.003862	           11.179617	           -0.685771	           -0.235736	            0.005741	           -0.293116	            0.000153	           -0.441904	            0.027107	            0.081696	            3.315343	           -0.082069	           -0.232311	            0.006130	           -0.833667	           -0.412410	           -0.292980	           -0.434424
            1.260500	           -0.049214	            9.737090	           -0.600129	           -0.233013	            0.005581	           -0.255695	            0.490269	           -0.480202	           -0.099567	            0.082340	            3.131362	           -0.129654	           -0.232311	            0.006130	           -0.833667	           -0.355943	           -0.321201	           -0.415699
            1.261000	           -0.324158	            9.736840	           -0.553590	           -0.233013	            0.005581	           -0.255695	            0.432115	           -0.517553	           -0.054917	           -0.060163	            3.682965	           -0.033767	           -0.232311	            0.006130	           -0.833667	           -0.449598	           -0.387978	           -0.340495
            1.261500	           -0.369609	            8.835110	           -0.465630	           -0.233013	            0.005581	           -0.255695	            0.409823	           -0.535740	           -0.132055	            0.127942	            3.499158	            0.059352	           -0.232311	            0.006130	           -0.833667	           -0.449810	           -0.340379	           -0.434577
            1.262000	           -0.187034	            8.836521	           -0.787076	           -0.233013	            0.005581	           -0.255695	            0.479706	           -0.535412	           -0.180803	            0.038792	            2.210619	           -0.179848	           -0.232311	            0.006130	           -0.833667	           -0.468621	           -0.331061	           -0.415685
            1.262500	           -0.324158	            9.736840	           -0.553590	           -0.233013	            0.005581	           -0.255695	            0.413476	           -0.480825	            0.001681	            0.036216	            2.946542	            0.010493	           -0.232311	            0.006130	           -0.833667	           -0.393667	           -0.283392	           -0.453249
            1.263000	           -0.324224	           10.097372	           -0.552045	           -0.237188	            0.005726	           -0.289578	            0.014825	           -0.461706	            0.025242	           -0.343277	            4.234562	           -0.078604	           -0.232311	            0.006130	           -0.833667	           -0.506108	           -0.341053	           -0.302602
